<svg width="230" height="150" viewBox="0 0 230 150" fill="none" xmlns="http://www.w3.org/2000/svg"><g clip-path="url(#clip0)"><path d="M71.163 31.584L61.411 60.25H91.25m0 0V42.781m0 17.47v24.662" stroke="#f97316" stroke-width="1.5"/><circle cx="71.292" cy="31.209" r="2.379" fill="#fff" stroke="#f97316" stroke-width="1.5"/><circle cx="61.411" cy="60.36" r="2.379" fill="#fff" stroke="#f97316" stroke-width="1.5"/><circle cx="91.03" cy="42.739" r="2.379" fill="#fff" stroke="#f97316" stroke-width="1.5"/><circle cx="91.03" cy="60.36" r="2.379" fill="#fff" stroke="#f97316" stroke-width="1.5"/><circle cx="91.03" cy="84.734" r="2.379" fill="#fff" stroke="#f97316" stroke-width="1.5"/><path d="M194.424 24.87l-5.076 37.817 25.402-1.942m0 0v-10.81m0 10.81v24.727" stroke="#f97316" stroke-width="1.5"/><circle cx="194.762" cy="25.167" r="2.38" fill="#fff" stroke="#f97316" stroke-width="1.5"/><circle cx="189.645" cy="62.841" r="2.38" fill="#fff" stroke="#f97316" stroke-width="1.5"/><circle cx="215.262" cy="60.758" r="2.38" fill="#fff" stroke="#f97316" stroke-width="1.5"/><circle cx="215.262" cy="51.359" r="2.38" fill="#fff" stroke="#f97316" stroke-width="1.5"/><circle cx="215.262" cy="85.272" r="2.38" fill="#fff" stroke="#f97316" stroke-width="1.5"/><path d="M67.75 99.003v27.725M87.75 97.445v15.421M199.75 110.75v6.585M179.745 103.75v13.941M159.75 119.769V126M128.75 119.769v13.917M138.75 119.096v26.512M98.75 110.479v10.937" stroke="#22c55e" stroke-width="1.5" stroke-linecap="round"/><path d="M77.75 87.113v9.47M210.75 115.75v15.42M189.75 117.75v6.585M169.75 112.75v6.231M148.75 116.653v7.381M118.75 114.622v13.918M108.75 119.096v6.297" stroke="#ef4444" stroke-width="1.5" stroke-linecap="round"/><path d="M6.75 20.753a4 4 0 014-4h32.5a4 4 0 014 4V129.25a4 4 0 01-4 4h-32.5a4 4 0 01-4-4V20.753z" fill="#fff" stroke="#1E222D" stroke-width="1.5"/><path d="M30.011 28.735l-1.586 1.586a2 2 0 000 2.829l2.172 2.171a2 2 0 002.828 0l6.086-6.086M23.511 44.254c2.761 0 5-2.432 5-5.131 0-2.7-2.239-4.888-5-4.888a5.013 5.013 0 00-4.455 2.666c-1.045 2.71-.845 5.79-4.045 7.353h8.5z" stroke="#1E222D" stroke-width="1.5"/><path d="M7.5 94h39v35.5a3 3 0 01-3 3h-33a3 3 0 01-3-3V94z" fill="#f97316"/><path fill-rule="evenodd" clip-rule="evenodd" d="M26.23 65.067l-4.56 4.56-1.494 4.484a2 2 0 00.483 2.047l.163.163-.032.032-4.14 4.14-1.163 1.163 1.538.583 6.665 2.528 2.757-2.757.032-.032a2 2 0 002.02.458l4.485-1.495 4.56-4.56-1.06-1.06-3.777 3.776-9.192-9.193 3.776-3.776-1.06-1.06zM21.6 74.586l1.1-3.302 8.628 8.628-3.302 1.1a.5.5 0 01-.511-.12l-5.795-5.795a.5.5 0 01-.12-.511zm.252 2.827l3.536 3.536-2.072 2.072-5.127-1.945 3.663-3.663z" fill="#1E222D"/><g clip-path="url(#clip1)" stroke="#fff" stroke-width="1.5"><path d="M13.46 118.152l8.328-8.327 7.918 7.204 9.555-10.279m0 0h-6.25m6.25 0V113"/><circle cx="21.927" cy="110.212" r="2.379" fill="#f97316"/><circle cx="29.39" cy="116.997" r="2.379" fill="#f97316"/></g><path d="M131.058 25.849l15.618-1.135 18.357 8.133 10.686 14.75 3.025 19.27-7.909 18.648-16.497 12.035-21.292.404-10.693-4.523-11.535-12.237-7.142-13.77 2.193-17.024 11.029-16.41 14.16-8.141z" stroke="#f97316" stroke-width="1.5"/><circle cx="146.509" cy="24.498" r="2.38" transform="rotate(7.34 146.509 24.498)" fill="#fff" stroke="#f97316" stroke-width="1.5"/><circle cx="131.272" cy="25.863" r="2.38" transform="rotate(7.34 131.272 25.863)" fill="#fff" stroke="#f97316" stroke-width="1.5"/><circle cx="116.775" cy="34.248" r="2.38" transform="rotate(7.34 116.775 34.248)" fill="#fff" stroke="#f97316" stroke-width="1.5"/><circle cx="105.662" cy="50.496" r="2.38" transform="rotate(7.34 105.662 50.496)" fill="#fff" stroke="#f97316" stroke-width="1.5"/><circle cx="103.546" cy="66.93" r="2.38" transform="rotate(7.34 103.546 66.93)" fill="#fff" stroke="#f97316" stroke-width="1.5"/><circle cx="110.668" cy="81.665" r="2.38" transform="rotate(7.34 110.668 81.665)" fill="#fff" stroke="#f97316" stroke-width="1.5"/><circle cx="122.55" cy="93.571" r="2.38" transform="rotate(7.34 122.55 93.571)" fill="#fff" stroke="#f97316" stroke-width="1.5"/><circle cx="133.427" cy="97.566" r="2.38" transform="rotate(7.34 133.427 97.566)" fill="#fff" stroke="#f97316" stroke-width="1.5"/><circle cx="154.279" cy="96.835" r="2.38" transform="rotate(7.34 154.279 96.835)" fill="#fff" stroke="#f97316" stroke-width="1.5"/><path d="M178.431 66.75h-73.96" stroke="#f97316" stroke-width="1.5"/><circle cx="170.34" cy="85.253" r="2.38" transform="rotate(7.34 170.34 85.253)" fill="#fff" stroke="#f97316" stroke-width="1.5"/><circle cx="178.511" cy="67.168" r="2.38" transform="rotate(7.34 178.511 67.168)" fill="#fff" stroke="#f97316" stroke-width="1.5"/><circle cx="175.814" cy="47.828" r="2.38" transform="rotate(7.34 175.814 47.828)" fill="#fff" stroke="#f97316" stroke-width="1.5"/><circle cx="165.118" cy="32.816" r="2.38" transform="rotate(7.34 165.118 32.816)" fill="#fff" stroke="#f97316" stroke-width="1.5"/><path d="M122.812 47.916l5.987-9.166h9.155l6.11 8.877-4.002 10.623h-13.253l-3.997-10.334z" stroke="#f97316" stroke-width="1.5"/><circle cx="128.815" cy="38.56" r="2.38" transform="rotate(-4.733 128.815 38.56)" fill="#fff" stroke="#f97316" stroke-width="1.5"/><circle cx="138.096" cy="38.56" r="2.38" transform="rotate(-4.733 138.096 38.56)" fill="#fff" stroke="#f97316" stroke-width="1.5"/><circle cx="143.692" cy="47.867" r="2.38" transform="rotate(-4.733 143.692 47.867)" fill="#fff" stroke="#f97316" stroke-width="1.5"/><circle cx="122.39" cy="47.867" r="2.38" transform="rotate(-4.733 122.39 47.867)" fill="#fff" stroke="#f97316" stroke-width="1.5"/><circle cx="126.077" cy="58.161" r="2.38" transform="rotate(-4.733 126.077 58.16)" fill="#fff" stroke="#f97316" stroke-width="1.5"/><path d="M142.863 58.45a2.38 2.38 0 11-4.745.392 2.38 2.38 0 014.745-.391z" fill="#fff" stroke="#f97316" stroke-width="1.5"/></g><defs><clipPath id="clip0"><path fill="#fff" d="M0 0h230v150H0z"/></clipPath><clipPath id="clip1"><path fill="#fff" transform="translate(13.011 99)" d="M0 0h28v28H0z"/></clipPath></defs></svg>